<?xml version="1.0" standalone="no"?>
<!DOCTYPE svg PUBLIC "-//W3C//DTD SVG 20010904//EN"
 "http://www.w3.org/TR/2001/REC-SVG-20010904/DTD/svg10.dtd">
<svg version="1.0" xmlns="http://www.w3.org/2000/svg"
 width="542.000000pt" height="542.000000pt" viewBox="0 0 542.000000 542.000000"
 preserveAspectRatio="xMidYMid meet">
<metadata>
Created by potrace 1.11, written by Peter Selinger 2001-2013
</metadata>
<g transform="translate(0.000000,542.000000) scale(0.100000,-0.100000)"
fill="#000000" stroke="none">
<path d="M2289 4003 c-42 -99 -64 -264 -63 -478 0 -110 3 -135 19 -163 11 -17
27 -32 37 -32 13 0 18 -8 18 -30 l0 -30 155 0 155 0 0 30 c0 23 4 30 20 30 11
0 20 6 20 14 0 8 5 16 11 18 14 5 23 76 23 193 0 85 -13 264 -19 275 -2 3 -6
26 -10 50 -6 46 -16 80 -41 137 l-14 31 -145 1 -145 2 -21 -48z m272 -13 c5
-51 0 -92 -12 -107 -13 -14 -14 -13 -19 13 -5 28 -7 29 -68 32 -69 3 -93 -8
-85 -39 4 -15 2 -18 -11 -13 -9 3 -17 18 -18 33 -3 65 -3 86 4 91 3 3 52 5
107 5 83 0 101 -3 102 -15z m-184 -332 c-2 -13 -4 -5 -4 17 -1 22 1 32 4 23 2
-10 2 -28 0 -40z m160 30 c-3 -8 -6 -5 -6 6 -1 11 2 17 5 13 3 -3 4 -12 1 -19z
m0 -40 c-3 -8 -6 -5 -6 6 -1 11 2 17 5 13 3 -3 4 -12 1 -19z m-82 -78 c34 0
66 5 73 12 13 13 16 0 4 -19 -5 -8 -34 -12 -85 -10 -70 1 -77 3 -77 21 0 16 3
17 12 8 7 -7 39 -12 73 -12z"/>
<path d="M2290 3225 l0 -35 165 0 165 0 0 35 0 35 -165 0 -165 0 0 -35z"/>
<path d="M4 2558 l1 -612 328 1 c181 1 331 3 333 6 5 5 7 46 5 99 l-1 27 -242
0 c-134 0 -253 0 -265 1 l-23 0 0 545 0 545 -69 0 -69 0 2 -612z"/>
<path d="M920 3100 l0 -70 80 0 80 0 0 -474 0 -474 -42 0 c-24 0 -60 0 -80 -1
l-38 -1 0 -68 0 -67 230 -1 230 0 0 68 c0 58 -3 68 -17 69 -10 1 -46 2 -81 3
l-64 1 1 400 c0 220 0 433 1 473 l0 72 80 0 80 0 0 70 0 70 -230 0 -230 0 0
-70z"/>
<path d="M1630 2558 l0 -613 69 141 69 140 1 472 0 472 -69 0 -70 0 0 -612z"/>
<path d="M2160 3033 c-35 -76 -82 -178 -106 -228 -23 -49 -53 -115 -67 -145
-13 -30 -40 -89 -60 -130 -19 -41 -44 -95 -55 -120 -12 -25 -63 -137 -115
-250 -56 -120 -91 -208 -85 -211 6 -4 19 -4 29 -2 12 3 19 0 19 -8 0 -10 2
-11 8 -2 4 6 24 13 44 15 l37 3 229 460 c126 254 242 487 257 519 15 31 29 56
30 54 3 -3 9 -114 20 -393 9 -239 18 -502 19 -572 l1 -73 35 0 36 0 0 610 -1
610 -106 0 -106 0 -63 -137z"/>
<path d="M2474 2563 c0 -335 4 -611 9 -614 4 -3 19 -4 33 -1 18 3 24 11 25 31
1 14 2 58 4 96 2 39 6 151 9 250 4 99 9 239 11 310 3 72 7 179 9 238 2 60 6
110 8 112 2 3 120 -229 262 -515 141 -286 263 -520 269 -521 20 -2 131 1 133
4 1 1 -24 56 -55 123 -31 66 -69 149 -85 185 -17 35 -50 107 -74 159 -60 131
-90 196 -227 493 l-119 257 -105 0 -106 0 -1 -607z"/>
<path d="M3139 3163 c0 -5 -1 -217 -1 -473 l-1 -465 67 -135 c36 -74 66 -133
67 -130 1 3 2 276 3 608 l1 602 -67 0 c-38 0 -68 -3 -69 -7z"/>
<path d="M3520 2560 c0 -481 3 -610 13 -610 20 -1 659 -1 695 -1 l32 1 0 64 0
64 -296 1 c-163 0 -299 2 -301 5 -3 3 -5 121 -3 359 l0 57 248 0 247 0 1 65 0
65 -248 0 -248 0 2 203 3 202 280 2 c154 1 288 2 298 2 14 1 17 11 17 66 l0
65 -370 0 -370 0 0 -610z"/>
<path d="M4512 2558 l3 -611 45 0 c25 1 55 1 67 2 l23 1 -1 328 c-1 728 -1
734 18 730 11 -2 95 -173 257 -525 133 -287 244 -524 247 -528 5 -5 147 -9
219 -6 l25 1 -2 593 c-1 325 -2 600 -2 610 -1 14 -11 17 -69 17 l-67 0 0 -530
c0 -522 0 -531 -20 -528 -15 2 -48 65 -145 278 -69 151 -137 300 -151 330 -14
30 -65 144 -114 253 l-90 197 -122 0 -123 0 2 -612z"/>
<path d="M46 1769 c-20 -16 -21 -26 -21 -192 1 -157 3 -178 19 -196 26 -29
108 -29 136 -1 22 22 27 76 8 83 -23 7 -48 -5 -48 -23 0 -23 -26 -33 -42 -16
-10 9 -13 50 -12 152 1 76 2 142 3 147 0 4 12 7 25 7 21 0 25 -6 28 -32 3 -28
7 -33 31 -35 25 -2 27 1 27 40 0 23 -4 47 -8 53 -24 36 -108 43 -146 13z"/>
<path d="M249 1748 c-1 -70 -1 -362 0 -375 1 -8 14 -13 31 -13 l30 0 0 215 0
215 -30 0 c-29 0 -30 -2 -31 -42z"/>
<path d="M348 1785 c-3 -3 1 -38 7 -78 14 -78 20 -115 36 -222 6 -38 13 -79
14 -90 2 -11 4 -24 4 -28 1 -12 76 -4 77 8 0 12 15 115 19 135 5 24 45 270 45
275 0 7 -60 2 -60 -5 0 -3 -9 -68 -20 -144 -19 -135 -29 -175 -31 -125 0 13
-2 31 -3 39 -2 8 -6 40 -10 70 -22 170 -22 170 -50 170 -12 0 -25 -2 -28 -5z"/>
<path d="M588 1783 c-3 -5 -4 -100 -4 -213 l1 -205 30 0 30 0 1 200 c0 110 -2
206 -4 213 -4 13 -48 17 -54 5z"/>
<path d="M701 1575 l0 -215 69 0 c68 0 70 1 70 25 0 15 -6 26 -15 26 -8 1 -25
2 -37 3 -23 1 -23 2 -26 189 l-2 187 -30 0 -29 0 0 -215z"/>
<path d="M979 1783 c-1 -5 -2 -101 -3 -215 l-1 -208 72 0 c63 0 73 2 73 18 0
29 -13 39 -50 38 l-35 -1 -3 67 -3 67 38 3 c33 3 38 7 41 31 3 25 1 27 -36 27
l-40 0 0 60 0 60 39 0 c42 0 53 10 44 40 -5 17 -15 20 -71 20 -35 0 -65 -3
-65 -7z"/>
<path d="M1162 1575 l-1 -215 29 0 30 0 0 133 1 132 29 -90 c16 -49 30 -109
30 -132 0 -41 2 -43 29 -43 l29 0 1 215 1 215 -30 0 -30 0 -1 -97 c0 -54 -2
-93 -4 -88 -2 6 -15 49 -30 98 -24 83 -27 87 -54 87 l-28 0 -1 -215z"/>
<path d="M1416 1774 c-25 -24 -28 -50 -24 -223 4 -193 3 -191 110 -191 l68 0
0 105 0 105 -45 0 c-44 0 -45 -1 -43 -29 1 -16 6 -27 10 -25 13 8 25 -37 19
-69 -5 -22 -13 -31 -29 -32 -30 -2 -33 14 -30 175 l3 135 27 3 c24 3 27 -1 30
-29 3 -28 7 -33 31 -34 25 -2 27 1 27 40 0 59 -25 82 -89 83 -33 1 -55 -4 -65
-14z"/>
<path d="M1620 1575 l0 -215 30 0 30 0 0 215 0 215 -30 0 -30 0 0 -215z"/>
<path d="M1739 1788 c-1 -2 -2 -99 -3 -215 l-1 -213 30 0 31 0 -1 125 c-1 69
2 122 6 117 15 -16 49 -153 49 -196 0 -44 1 -46 30 -46 33 0 32 -5 32 105 0
36 -1 124 -1 195 l-1 130 -30 0 -30 0 -1 -92 0 -93 -27 93 c-25 88 -28 92 -54
92 -15 0 -29 -1 -29 -2z"/>
<path d="M1970 1574 l0 -214 71 0 70 0 -3 28 c-3 24 -7 27 -38 27 l-35 0 -3
68 -3 67 34 0 c31 0 35 3 39 30 4 29 3 30 -34 30 l-38 0 0 60 0 60 39 0 c29 0
40 4 44 19 8 33 -6 40 -76 40 l-67 -1 0 -214z"/>
<path d="M2155 1575 l-1 -215 74 0 73 0 -3 28 c-3 24 -7 27 -40 27 -21 0 -38
2 -39 5 -1 3 -2 33 -3 68 l-3 62 39 0 c36 0 38 2 38 30 0 28 -2 30 -38 30
l-38 0 0 60 0 60 43 0 c41 0 43 1 43 30 l0 30 -73 0 -72 0 0 -215z"/>
<path d="M2341 1575 l-1 -215 33 0 32 0 -2 85 c-1 66 1 85 12 85 18 0 23 -10
31 -56 3 -20 10 -49 16 -63 5 -14 9 -27 9 -28 -5 -16 4 -23 28 -23 l29 0 -19
86 c-17 80 -17 87 -2 111 13 20 17 46 15 112 -2 108 -10 117 -110 120 l-70 2
-1 -216z m121 137 c2 -8 1 -41 -2 -71 -5 -52 -7 -56 -30 -56 -24 0 -25 3 -26
65 -1 36 2 70 7 76 13 16 47 6 51 -14z"/>
<path d="M2570 1573 l0 -213 30 0 30 0 0 215 0 215 -30 -2 -30 -2 0 -213z"/>
<path d="M2689 1748 c0 -24 -1 -119 -1 -213 l-1 -170 32 -3 31 -3 1 123 0 123
25 -70 c14 -38 26 -92 27 -120 3 -47 5 -50 33 -53 l29 -3 0 213 0 213 -30 0
-30 0 0 -82 c0 -46 -2 -83 -5 -83 -3 0 -16 38 -29 85 -22 82 -24 85 -52 85
-27 0 -29 -2 -30 -42z"/>
<path d="M2939 1769 c-23 -23 -21 -6 -21 -207 -1 -201 0 -202 109 -202 l73 0
0 105 0 105 -45 0 c-43 0 -45 -1 -45 -30 0 -19 5 -30 14 -30 21 0 16 -92 -5
-95 -32 -5 -38 10 -39 100 -3 212 -3 215 25 215 14 0 25 -4 25 -10 0 -37 17
-60 43 -56 19 3 22 9 21 45 -1 57 -22 76 -86 77 -37 1 -55 -3 -69 -17z"/>
<path d="M3284 1777 c-10 -6 -22 -15 -26 -21 -12 -18 -9 -151 4 -164 9 -9 8
-16 -4 -29 -18 -21 -22 -136 -6 -168 16 -29 28 -35 76 -35 29 0 48 6 62 20 22
22 23 29 21 111 -2 43 2 58 13 62 9 4 16 15 16 26 0 18 -8 20 -62 23 l-63 3
-3 59 c-3 63 9 89 31 68 6 -7 12 -23 12 -34 0 -17 6 -22 28 -23 25 -2 27 1 27
37 0 24 -7 45 -19 57 -21 21 -75 25 -107 8z m70 -290 c-2 -82 -1 -79 -26 -75
-21 3 -23 9 -26 67 -3 66 5 83 37 74 13 -3 16 -16 15 -66z"/>
<path d="M3592 1774 c-19 -16 -23 -29 -23 -89 0 -38 0 -75 0 -82 1 -7 25 -28
55 -47 40 -26 54 -41 57 -63 6 -41 0 -71 -16 -77 -16 -6 -48 21 -40 34 3 4 -9
10 -25 12 -29 4 -30 3 -30 -33 0 -47 27 -69 87 -69 68 0 83 22 83 120 l0 80
-54 30 c-30 17 -56 36 -58 43 -4 10 -3 56 1 87 0 6 12 10 26 10 21 0 25 -5 25
-30 0 -27 3 -30 30 -30 28 0 30 2 30 38 0 55 -18 74 -76 79 -38 4 -54 1 -72
-13z"/>
<path d="M3795 1778 c-3 -7 -4 -98 -3 -201 3 -217 3 -217 94 -217 44 0 56 4
73 25 18 24 20 41 20 215 l0 190 -30 0 -29 0 0 -179 c0 -187 -2 -197 -45 -196
-19 0 -20 8 -23 188 l-2 187 -26 0 c-13 0 -27 -6 -29 -12z"/>
<path d="M4039 1788 c-1 -2 -2 -99 -3 -215 l-2 -213 28 0 28 0 0 85 c0 78 2
85 20 85 11 0 20 -6 20 -14 0 -7 7 -46 16 -85 16 -68 17 -71 45 -71 25 0 29 3
24 23 -35 153 -35 151 -19 169 13 13 16 39 16 110 -1 116 -11 128 -108 128
-35 0 -65 -1 -65 -2z m111 -127 c0 -73 -7 -86 -40 -76 -17 6 -20 15 -20 76 l0
69 30 0 30 0 0 -69z"/>
<path d="M4249 1783 c-2 -15 2 -51 25 -193 9 -52 18 -113 22 -135 3 -22 8 -47
9 -55 2 -8 4 -21 4 -27 1 -8 15 -13 35 -13 38 0 41 4 52 85 3 28 8 59 10 70 2
11 11 63 19 115 8 52 17 110 20 128 6 30 4 32 -24 32 -31 0 -31 1 -46 -115 -3
-22 -8 -51 -10 -65 -3 -14 -7 -45 -10 -70 -3 -24 -7 -46 -9 -47 -2 -2 -8 36
-15 84 -6 48 -13 102 -16 118 -16 98 -15 95 -40 95 -14 0 -26 -3 -26 -7z"/>
<path d="M4480 1575 l0 -215 69 0 c65 0 69 1 73 25 6 27 5 27 -44 29 -37 1
-45 20 -40 92 4 43 5 44 38 44 31 0 34 3 34 29 0 27 -3 30 -37 33 l-37 3 3 55
c1 30 5 57 7 59 2 2 18 4 36 3 36 -1 48 11 41 39 -5 16 -15 19 -74 19 l-69 0
0 -215z"/>
<path d="M4650 1778 c0 -7 14 -65 31 -128 22 -82 32 -139 33 -200 l1 -85 30
-3 31 -3 -1 73 c-1 53 7 109 32 205 18 73 33 137 33 143 0 6 -12 10 -27 8 -29
-3 -33 -13 -54 -113 -14 -67 -13 -67 -41 55 -12 49 -16 55 -40 58 -18 2 -28
-1 -28 -10z"/>
<path d="M4880 1575 l0 -215 29 0 29 0 0 215 1 215 -29 0 -30 0 0 -215z"/>
<path d="M4999 1788 c-1 -2 -2 -99 -3 -215 l-2 -213 31 0 31 0 -1 115 c-1 63
2 115 5 115 12 0 50 -138 50 -183 0 -46 1 -47 30 -47 l30 0 0 215 0 215 -30 0
-30 0 -1 -92 0 -93 -28 90 c-25 82 -29 90 -54 93 -15 2 -28 2 -28 0z"/>
<path d="M5249 1771 c-24 -19 -24 -22 -24 -201 1 -215 -1 -210 107 -210 64 0
68 1 69 23 4 93 3 170 -2 179 -3 5 -24 8 -45 6 -33 -3 -39 -7 -40 -27 -1 -14
5 -25 15 -28 13 -3 17 -15 16 -50 -1 -41 -4 -47 -23 -48 -13 -1 -26 5 -31 14
-5 13 -7 233 -2 289 0 6 12 12 26 12 14 0 26 -6 26 -12 1 -7 2 -17 4 -23 1 -5
3 -15 3 -21 3 -17 46 -11 54 7 12 29 -6 83 -32 96 -37 19 -94 16 -121 -6z"/>
</g>
</svg>
